# MagicaVoxel @ Ephtracy

# group
o 

# material
mtllib pufferfosj pixle model.mtl
usemtl palette

# normals
vn -1 0 0
vn 1 0 0
vn 0 0 1
vn 0 0 -1
vn 0 -1 0
vn 0 1 0

# texcoords
vt 0.0488281 0.5
vt 0.291016 0.5
vt 0.373047 0.5
vt 0.427734 0.5
vt 0.990234 0.5

# verts
v -1.4 1.2 -0.2
v -1.4 1.2 -0.4
v -1.4 1.6 -0.2
v -1.4 1.6 -0.4
v -1.2 1 -0.2
v -1.2 1 -0.4
v -1.2 1.2 -0.2
v -1.2 1.2 -0.4
v -1.2 1.6 -0.2
v -1.2 1.6 -0.4
v -1.2 1.8 -0.2
v -1.2 1.8 -0.4
v -0.8 0.4 0.4
v -0.8 0.4 0.2
v -0.8 0.8 0.4
v -0.8 0.8 0.2
v -0.8 1 0.4
v -0.8 1 -0.2
v -0.8 1 -0.4
v -0.8 1 -1
v -0.8 1.6 0.4
v -0.8 1.6 -0.2
v -0.8 1.6 -0.4
v -0.8 1.6 -1
v -0.6 0.8 0.4
v -0.6 0.8 0.2
v -0.6 0.8 -0.8
v -0.6 1 0.6
v -0.6 1 0.4
v -0.6 1 -0.8
v -0.6 1.4 0.6
v -0.6 1.4 0.4
v -0.6 1.6 -0.9
v -0.6 1.6 -1
v -0.6 1.7 -0.9
v -0.6 1.7 -1
v -0.4 0.6 0.2
v -0.4 0.6 -0.8
v -0.4 0.8 0.6
v -0.4 0.8 0.4
v -0.4 0.8 0.2
v -0.4 0.8 -0.8
v -0.4 1 0.8
v -0.4 1 0.6
v -0.4 1 0.4
v -0.4 1.4 0.8
v -0.4 1.4 0.6
v -0.4 1.4 0.4
v -0.4 1.6 0.6
v -0.4 1.6 0.4
v -0.4 1.6 0.2
v -0.4 1.6 -0.8
v -0.4 1.8 0.2
v -0.4 1.8 -1.19209e-07
v -0.4 1.8 -0.2
v -0.4 1.8 -0.8
v -0.4 1.9 -1.19209e-07
v -0.4 1.9 -0.2
v -0.2 1 1
v -0.2 1 0.8
v -0.2 1.4 1.6
v -0.2 1.4 1.4
v -0.2 1.4 1
v -0.2 1.4 0.8
v -0.2 1.6 1.6
v -0.2 1.6 1.4
v -0.2 1.8 -0.7
v -0.2 1.8 -0.8
v -0.2 1.9 -0.7
v -0.2 1.9 -0.8
v 0 0.8 -0.8
v 0 0.8 -1
v 0 0.9 -0.9
v 0 0.9 -1
v 0 1 1.2
v 0 1 1
v 0 1 -0.8
v 0 1 -0.9
v 0 1 -1
v 0 1.2 1.4
v 0 1.2 1.2
v 0 1.4 1.8
v 0 1.4 1.6
v 0 1.4 1.4
v 0 1.4 1
v 0 1.6 1.8
v 0 1.6 1.6
v 0 1.6 1.4
v 0 1.6 1
v 0 1.8 0.2
v 0 1.8 0.0999998
v 0 1.9 0.2
v 0 1.9 0.0999998
v 0.1 1.8 -0.4
v 0.1 1.8 -0.6
v 0.1 1.9 -0.4
v 0.1 1.9 -0.6
v 0.4 1 -0.8
v 0.4 1 -0.9
v 0.4 1 -1
v 0.4 1.6 -0.8
v 0.4 1.6 -1
v 0.5 1.6 -0.9
v 0.5 1.6 -1
v 0.5 1.7 -0.9
v 0.5 1.7 -1
v 0.5 1.8 -0.1
v 0.5 1.8 -0.3
v 0.5 1.8 -0.6
v 0.5 1.8 -0.7
v 0.5 1.9 -0.1
v 0.5 1.9 -0.3
v 0.5 1.9 -0.6
v 0.5 1.9 -0.7
v 0.6 0.6 0.6
v 0.6 0.6 0.4
v 0.6 0.8 0.6
v 0.6 0.8 0.4
v 0.8 0.4 0.6
v 0.8 0.4 0.4
v 0.8 0.6 0.6
v 0.8 0.6 0.4
v 0.9 1.6 -0.5
v 0.9 1.6 -0.7
v 0.9 1.7 -0.5
v 0.9 1.7 -0.7
v 1.2 1.6 -0.2
v 1.2 1.6 -0.4
v 1.2 1.8 -0.2
v 1.2 1.8 -0.4
v -0.8 1.6 -0.2
v -0.8 1.6 -0.4
v -0.8 1.8 -0.2
v -0.8 1.8 -0.4
v -0.6 0.4 0.4
v -0.6 0.4 0.2
v -0.6 0.6 0.4
v -0.6 0.6 0.2
v -0.2 1.8 -1.19209e-07
v -0.2 1.8 -0.2
v -0.2 1.9 -1.19209e-07
v -0.2 1.9 -0.2
v -0.1 1.6 -0.9
v -0.1 1.6 -1
v -0.1 1.7 -0.9
v -0.1 1.7 -1
v -0.1 1.8 -0.7
v -0.1 1.8 -0.8
v -0.1 1.9 -0.7
v -0.1 1.9 -0.8
v 0 1 -0.8
v 0 1 -0.9
v 0 1 -1
v 0 1.6 -0.8
v 0 1.6 -1
v 0.1 1.8 0.2
v 0.1 1.8 0.0999998
v 0.1 1.9 0.2
v 0.1 1.9 0.0999998
v 0.3 1.8 -0.4
v 0.3 1.8 -0.6
v 0.3 1.9 -0.4
v 0.3 1.9 -0.6
v 0.4 0.8 -0.8
v 0.4 0.8 -1
v 0.4 0.9 -0.9
v 0.4 0.9 -1
v 0.4 1 1.2
v 0.4 1 1
v 0.4 1 -0.8
v 0.4 1 -0.9
v 0.4 1 -1
v 0.4 1.2 1.4
v 0.4 1.2 1.2
v 0.4 1.4 1.8
v 0.4 1.4 1.6
v 0.4 1.4 1.4
v 0.4 1.4 1
v 0.4 1.6 1.8
v 0.4 1.6 1.6
v 0.4 1.6 1.4
v 0.4 1.6 1
v 0.6 1 1
v 0.6 1 0.8
v 0.6 1.4 1.6
v 0.6 1.4 1.4
v 0.6 1.4 1
v 0.6 1.4 0.8
v 0.6 1.6 1.6
v 0.6 1.6 1.4
v 0.6 1.8 -0.6
v 0.6 1.8 -0.7
v 0.6 1.9 -0.6
v 0.6 1.9 -0.7
v 0.7 1.8 -0.1
v 0.7 1.8 -0.3
v 0.7 1.9 -0.1
v 0.7 1.9 -0.3
v 0.8 0.6 0.4
v 0.8 0.6 -0.8
v 0.8 0.8 0.6
v 0.8 0.8 0.4
v 0.8 0.8 -0.8
v 0.8 1 0.8
v 0.8 1 0.6
v 0.8 1 0.4
v 0.8 1.4 0.8
v 0.8 1.4 0.6
v 0.8 1.4 0.4
v 0.8 1.6 0.6
v 0.8 1.6 0.4
v 0.8 1.6 0.2
v 0.8 1.6 -0.8
v 0.8 1.8 0.2
v 0.8 1.8 -0.8
v 1 0.4 0.6
v 1 0.4 0.4
v 1 0.8 0.6
v 1 0.8 0.4
v 1 0.8 -0.8
v 1 1 0.6
v 1 1 0.4
v 1 1 -0.8
v 1 1.4 0.6
v 1 1.4 0.4
v 1 1.6 -0.9
v 1 1.6 -1
v 1 1.7 -0.9
v 1 1.7 -1
v 1.1 1.6 -0.5
v 1.1 1.6 -0.7
v 1.1 1.7 -0.5
v 1.1 1.7 -0.7
v 1.2 1 0.4
v 1.2 1 -0.2
v 1.2 1 -0.4
v 1.2 1 -1
v 1.2 1.4 -0.8
v 1.2 1.4 -1
v 1.2 1.6 0.4
v 1.2 1.6 -0.2
v 1.2 1.6 -0.4
v 1.2 1.6 -0.8
v 1.2 1.6 -1
v 1.6 1 -0.2
v 1.6 1 -0.4
v 1.6 1.2 -0.2
v 1.6 1.2 -0.4
v 1.6 1.6 -0.2
v 1.6 1.6 -0.4
v 1.6 1.8 -0.2
v 1.6 1.8 -0.4
v 1.8 1.2 -0.2
v 1.8 1.2 -0.4
v 1.8 1.6 -0.2
v 1.8 1.6 -0.4
v 0 1.4 1.8
v 0 1.6 1.8
v 0.4 1.4 1.8
v 0.4 1.6 1.8
v -0.2 1.4 1.6
v -0.2 1.6 1.6
v 0 1.4 1.6
v 0 1.6 1.6
v 0.4 1.4 1.6
v 0.4 1.6 1.6
v 0.6 1.4 1.6
v 0.6 1.6 1.6
v 0 1.2 1.4
v 0 1.4 1.4
v 0.4 1.2 1.4
v 0.4 1.4 1.4
v 0 1 1.2
v 0 1.2 1.2
v 0.4 1 1.2
v 0.4 1.2 1.2
v -0.2 1 1
v -0.2 1.4 1
v 0 1 1
v 0 1.4 1
v 0.4 1 1
v 0.4 1.4 1
v 0.6 1 1
v 0.6 1.4 1
v -0.4 1 0.8
v -0.4 1.4 0.8
v -0.2 1 0.8
v -0.2 1.4 0.8
v 0.6 1 0.8
v 0.6 1.4 0.8
v 0.8 1 0.8
v 0.8 1.4 0.8
v -0.6 1 0.6
v -0.6 1.4 0.6
v -0.4 0.8 0.6
v -0.4 1 0.6
v -0.4 1.4 0.6
v -0.4 1.6 0.6
v 0.6 0.6 0.6
v 0.6 0.8 0.6
v 0.8 0.4 0.6
v 0.8 0.6 0.6
v 0.8 0.8 0.6
v 0.8 1 0.6
v 0.8 1.4 0.6
v 0.8 1.6 0.6
v 1 0.4 0.6
v 1 0.8 0.6
v 1 1 0.6
v 1 1.4 0.6
v -0.8 0.4 0.4
v -0.8 0.8 0.4
v -0.8 1 0.4
v -0.8 1.6 0.4
v -0.6 0.4 0.4
v -0.6 0.6 0.4
v -0.6 0.8 0.4
v -0.6 1 0.4
v -0.6 1.4 0.4
v -0.4 0.6 0.4
v -0.4 0.8 0.4
v -0.4 1 0.4
v -0.4 1.4 0.4
v -0.4 1.6 0.4
v 0.6 0.6 0.4
v 0.6 0.8 0.4
v 0.8 0.8 0.4
v 0.8 1 0.4
v 0.8 1.4 0.4
v 0.8 1.6 0.4
v 1 0.8 0.4
v 1 1 0.4
v 1 1.4 0.4
v 1.2 1 0.4
v 1.2 1.6 0.4
v -0.4 1.6 0.2
v -0.4 1.8 0.2
v 0 1.8 0.2
v 0 1.9 0.2
v 0.1 1.8 0.2
v 0.1 1.9 0.2
v 0.8 1.6 0.2
v 0.8 1.8 0.2
v -0.4 1.8 -1.19209e-07
v -0.4 1.9 -1.19209e-07
v -0.2 1.8 -1.19209e-07
v -0.2 1.9 -1.19209e-07
v 0.5 1.8 -0.1
v 0.5 1.9 -0.1
v 0.7 1.8 -0.1
v 0.7 1.9 -0.1
v -1.4 1.2 -0.2
v -1.4 1.6 -0.2
v -1.2 1 -0.2
v -1.2 1.2 -0.2
v -1.2 1.6 -0.2
v -1.2 1.8 -0.2
v -0.8 1 -0.2
v -0.8 1.6 -0.2
v -0.8 1.8 -0.2
v 1.2 1 -0.2
v 1.2 1.6 -0.2
v 1.2 1.8 -0.2
v 1.6 1 -0.2
v 1.6 1.2 -0.2
v 1.6 1.6 -0.2
v 1.6 1.8 -0.2
v 1.8 1.2 -0.2
v 1.8 1.6 -0.2
v 0.1 1.8 -0.4
v 0.1 1.9 -0.4
v 0.3 1.8 -0.4
v 0.3 1.9 -0.4
v 0.9 1.6 -0.5
v 0.9 1.7 -0.5
v 1.1 1.6 -0.5
v 1.1 1.7 -0.5
v 0.5 1.8 -0.6
v 0.5 1.9 -0.6
v 0.6 1.8 -0.6
v 0.6 1.9 -0.6
v -0.2 1.8 -0.7
v -0.2 1.9 -0.7
v -0.1 1.8 -0.7
v -0.1 1.9 -0.7
v -0.6 1.6 -0.9
v -0.6 1.7 -0.9
v -0.1 1.6 -0.9
v -0.1 1.7 -0.9
v 0.5 1.6 -0.9
v 0.5 1.7 -0.9
v 1 1.6 -0.9
v 1 1.7 -0.9
v -0.2 1.4 1.4
v -0.2 1.6 1.4
v 0 1.4 1.4
v 0 1.6 1.4
v 0.4 1.4 1.4
v 0.4 1.6 1.4
v 0.6 1.4 1.4
v 0.6 1.6 1.4
v 0 1.4 1
v 0 1.6 1
v 0.4 1.4 1
v 0.4 1.6 1
v 0.8 0.4 0.4
v 0.8 0.6 0.4
v 0.8 0.8 0.4
v 1 0.4 0.4
v 1 0.8 0.4
v -0.8 0.4 0.2
v -0.8 0.8 0.2
v -0.6 0.4 0.2
v -0.6 0.6 0.2
v -0.6 0.8 0.2
v -0.4 0.6 0.2
v -0.4 0.8 0.2
v 0 1.8 0.0999998
v 0 1.9 0.0999998
v 0.1 1.8 0.0999998
v 0.1 1.9 0.0999998
v -0.4 1.8 -0.2
v -0.4 1.9 -0.2
v -0.2 1.8 -0.2
v -0.2 1.9 -0.2
v 0.5 1.8 -0.3
v 0.5 1.9 -0.3
v 0.7 1.8 -0.3
v 0.7 1.9 -0.3
v -1.4 1.2 -0.4
v -1.4 1.6 -0.4
v -1.2 1 -0.4
v -1.2 1.2 -0.4
v -1.2 1.6 -0.4
v -1.2 1.8 -0.4
v -0.8 1 -0.4
v -0.8 1.6 -0.4
v -0.8 1.8 -0.4
v 1.2 1 -0.4
v 1.2 1.6 -0.4
v 1.2 1.8 -0.4
v 1.6 1 -0.4
v 1.6 1.2 -0.4
v 1.6 1.6 -0.4
v 1.6 1.8 -0.4
v 1.8 1.2 -0.4
v 1.8 1.6 -0.4
v 0.1 1.8 -0.6
v 0.1 1.9 -0.6
v 0.3 1.8 -0.6
v 0.3 1.9 -0.6
v 0.5 1.8 -0.7
v 0.5 1.9 -0.7
v 0.6 1.8 -0.7
v 0.6 1.9 -0.7
v 0.9 1.6 -0.7
v 0.9 1.7 -0.7
v 1.1 1.6 -0.7
v 1.1 1.7 -0.7
v -0.6 0.8 -0.8
v -0.6 1 -0.8
v -0.4 0.6 -0.8
v -0.4 0.8 -0.8
v -0.4 1.6 -0.8
v -0.4 1.8 -0.8
v -0.2 1 -0.8
v -0.2 1.8 -0.8
v -0.2 1.9 -0.8
v -0.1 1.8 -0.8
v -0.1 1.9 -0.8
v 0 0.8 -0.8
v 0 1 -0.8
v 0 1.6 -0.8
v 0.4 0.8 -0.8
v 0.4 1 -0.8
v 0.4 1.6 -0.8
v 0.6 1 -0.8
v 0.8 0.6 -0.8
v 0.8 0.8 -0.8
v 0.8 1.6 -0.8
v 0.8 1.8 -0.8
v 1 0.8 -0.8
v 1 1 -0.8
v -0.8 1 -1
v -0.8 1.6 -1
v -0.7 1.1 -1
v -0.7 1.5 -1
v -0.6 1 -1
v -0.6 1.1 -1
v -0.6 1.2 -1
v -0.6 1.4 -1
v -0.6 1.6 -1
v -0.6 1.7 -1
v -0.2 1 -1
v -0.2 1.1 -1
v -0.2 1.2 -1
v -0.2 1.4 -1
v -0.1 1.1 -1
v -0.1 1.5 -1
v -0.1 1.6 -1
v -0.1 1.7 -1
v 0 0.8 -1
v 0 0.9 -1
v 0 1 -1
v 0 1.6 -1
v 0.4 0.8 -1
v 0.4 0.9 -1
v 0.4 1 -1
v 0.4 1.6 -1
v 0.5 1.1 -1
v 0.5 1.5 -1
v 0.5 1.6 -1
v 0.5 1.7 -1
v 0.6 1 -1
v 0.6 1.1 -1
v 0.6 1.2 -1
v 0.6 1.4 -1
v 1 1 -1
v 1 1.1 -1
v 1 1.2 -1
v 1 1.4 -1
v 1 1.5 -1
v 1 1.6 -1
v 1 1.7 -1
v 1.1 1.1 -1
v 1.1 1.4 -1
v 1.1 1.5 -1
v 1.2 1 -1
v 1.2 1.4 -1
v 1.2 1.6 -1
v 0.8 0.4 0.6
v 1 0.4 0.6
v -0.8 0.4 0.4
v -0.6 0.4 0.4
v 0.8 0.4 0.4
v 1 0.4 0.4
v -0.8 0.4 0.2
v -0.6 0.4 0.2
v 0.6 0.6 0.6
v 0.8 0.6 0.6
v -0.6 0.6 0.4
v -0.4 0.6 0.4
v 0.6 0.6 0.4
v 0.8 0.6 0.4
v -0.6 0.6 0.2
v -0.4 0.6 0.2
v -0.4 0.6 -0.8
v 0.8 0.6 -0.8
v -0.4 0.8 0.6
v 0.6 0.8 0.6
v -0.4 0.8 0.4
v 0.6 0.8 0.4
v 0.8 0.8 0.4
v 1 0.8 0.4
v -0.6 0.8 0.2
v -0.4 0.8 0.2
v -0.6 0.8 -0.8
v -0.4 0.8 -0.8
v 0 0.8 -0.8
v 0.4 0.8 -0.8
v 0.8 0.8 -0.8
v 1 0.8 -0.8
v 0 0.8 -1
v 0.4 0.8 -1
v 0 1 1.2
v 0.4 1 1.2
v -0.2 1 1
v 0 1 1
v 0.4 1 1
v 0.6 1 1
v -0.4 1 0.8
v -0.2 1 0.8
v 0.6 1 0.8
v 0.8 1 0.8
v -0.6 1 0.6
v -0.4 1 0.6
v 0.8 1 0.6
v 1 1 0.6
v -0.8 1 0.4
v -0.6 1 0.4
v -0.4 1 0.4
v 0.8 1 0.4
v 1 1 0.4
v 1.2 1 0.4
v -1.2 1 -0.2
v -0.8 1 -0.2
v 1.2 1 -0.2
v 1.6 1 -0.2
v -1.2 1 -0.4
v -0.8 1 -0.4
v 1.2 1 -0.4
v 1.6 1 -0.4
v -0.6 1 -0.8
v -0.2 1 -0.8
v 0 1 -0.8
v 0.4 1 -0.8
v 0.6 1 -0.8
v 1 1 -0.8
v 0 1 -0.9
v 0.4 1 -0.9
v -0.8 1 -1
v -0.6 1 -1
v -0.2 1 -1
v 0 1 -1
v 0.4 1 -1
v 0.6 1 -1
v 1 1 -1
v 1.2 1 -1
v 0 1.2 1.4
v 0.4 1.2 1.4
v 0 1.2 1.2
v 0.4 1.2 1.2
v -1.4 1.2 -0.2
v -1.2 1.2 -0.2
v 1.6 1.2 -0.2
v 1.8 1.2 -0.2
v -1.4 1.2 -0.4
v -1.2 1.2 -0.4
v 1.6 1.2 -0.4
v 1.8 1.2 -0.4
v 0 1.4 1.8
v 0.4 1.4 1.8
v -0.2 1.4 1.6
v 0 1.4 1.6
v 0.4 1.4 1.6
v 0.6 1.4 1.6
v -0.2 1.4 1.4
v 0 1.4 1.4
v 0.4 1.4 1.4
v 0.6 1.4 1.4
v 0.8 0.8 0.6
v 1 0.8 0.6
v -0.8 0.8 0.4
v -0.6 0.8 0.4
v 0.8 0.8 0.4
v 1 0.8 0.4
v -0.8 0.8 0.2
v -0.6 0.8 0.2
v 0 1 -0.8
v 0.4 1 -0.8
v 0 1 -0.9
v 0.4 1 -0.9
v 0 1 -1
v 0.4 1 -1
v -0.2 1.4 1
v 0 1.4 1
v 0.4 1.4 1
v 0.6 1.4 1
v -0.4 1.4 0.8
v -0.2 1.4 0.8
v 0.6 1.4 0.8
v 0.8 1.4 0.8
v -0.6 1.4 0.6
v -0.4 1.4 0.6
v 0.8 1.4 0.6
v 1 1.4 0.6
v -0.6 1.4 0.4
v -0.4 1.4 0.4
v 0.8 1.4 0.4
v 1 1.4 0.4
v 0 1.6 1.8
v 0.4 1.6 1.8
v -0.2 1.6 1.6
v 0 1.6 1.6
v 0.4 1.6 1.6
v 0.6 1.6 1.6
v -0.2 1.6 1.4
v 0 1.6 1.4
v 0.4 1.6 1.4
v 0.6 1.6 1.4
v 0 1.6 1
v 0.4 1.6 1
v -0.4 1.6 0.6
v 0.8 1.6 0.6
v -0.8 1.6 0.4
v -0.4 1.6 0.4
v 0.8 1.6 0.4
v 1.2 1.6 0.4
v -0.4 1.6 0.2
v 0.8 1.6 0.2
v -1.4 1.6 -0.2
v -1.2 1.6 -0.2
v -0.8 1.6 -0.2
v 1.2 1.6 -0.2
v 1.6 1.6 -0.2
v 1.8 1.6 -0.2
v -1.4 1.6 -0.4
v -1.2 1.6 -0.4
v -0.8 1.6 -0.4
v 1.2 1.6 -0.4
v 1.6 1.6 -0.4
v 1.8 1.6 -0.4
v 0.9 1.6 -0.5
v 1.1 1.6 -0.5
v 0.9 1.6 -0.7
v 1.1 1.6 -0.7
v -0.4 1.6 -0.8
v 0 1.6 -0.8
v 0.4 1.6 -0.8
v 0.8 1.6 -0.8
v 1 1.6 -0.8
v 1.2 1.6 -0.8
v -0.6 1.6 -0.9
v -0.1 1.6 -0.9
v 0.5 1.6 -0.9
v 1 1.6 -0.9
v -0.8 1.6 -1
v -0.6 1.6 -1
v -0.1 1.6 -1
v 0 1.6 -1
v 0.4 1.6 -1
v 0.5 1.6 -1
v 1 1.6 -1
v 1.2 1.6 -1
v 0.9 1.7 -0.5
v 1.1 1.7 -0.5
v 0.9 1.7 -0.7
v 1.1 1.7 -0.7
v -0.6 1.7 -0.9
v -0.1 1.7 -0.9
v 0.5 1.7 -0.9
v 1 1.7 -0.9
v -0.6 1.7 -1
v -0.1 1.7 -1
v 0.5 1.7 -1
v 1 1.7 -1
v -0.4 1.8 0.2
v 0 1.8 0.2
v 0.1 1.8 0.2
v 0.8 1.8 0.2
v 0 1.8 0.0999998
v 0.1 1.8 0.0999998
v -0.4 1.8 -1.19209e-07
v -0.2 1.8 -1.19209e-07
v 0.5 1.8 -0.1
v 0.7 1.8 -0.1
v -1.2 1.8 -0.2
v -0.8 1.8 -0.2
v -0.4 1.8 -0.2
v -0.2 1.8 -0.2
v 1.2 1.8 -0.2
v 1.6 1.8 -0.2
v 0.5 1.8 -0.3
v 0.7 1.8 -0.3
v -1.2 1.8 -0.4
v -0.8 1.8 -0.4
v 0.1 1.8 -0.4
v 0.3 1.8 -0.4
v 1.2 1.8 -0.4
v 1.6 1.8 -0.4
v 0.1 1.8 -0.6
v 0.3 1.8 -0.6
v 0.5 1.8 -0.6
v 0.6 1.8 -0.6
v -0.2 1.8 -0.7
v -0.1 1.8 -0.7
v 0.5 1.8 -0.7
v 0.6 1.8 -0.7
v -0.4 1.8 -0.8
v -0.2 1.8 -0.8
v -0.1 1.8 -0.8
v 0.8 1.8 -0.8
v 0 1.9 0.2
v 0.1 1.9 0.2
v 0 1.9 0.0999998
v 0.1 1.9 0.0999998
v -0.4 1.9 -1.19209e-07
v -0.2 1.9 -1.19209e-07
v 0.5 1.9 -0.1
v 0.7 1.9 -0.1
v -0.4 1.9 -0.2
v -0.2 1.9 -0.2
v 0.5 1.9 -0.3
v 0.7 1.9 -0.3
v 0.1 1.9 -0.4
v 0.3 1.9 -0.4
v 0.1 1.9 -0.6
v 0.3 1.9 -0.6
v 0.5 1.9 -0.6
v 0.6 1.9 -0.6
v -0.2 1.9 -0.7
v -0.1 1.9 -0.7
v 0.5 1.9 -0.7
v 0.6 1.9 -0.7
v -0.2 1.9 -0.8
v -0.1 1.9 -0.8

# faces
f 3/3/1 2/3/1 1/3/1
f 4/3/1 2/3/1 3/3/1
f 7/4/1 6/4/1 5/4/1
f 8/4/1 6/4/1 7/4/1
f 11/4/1 10/4/1 9/4/1
f 12/4/1 10/4/1 11/4/1
f 15/3/1 14/3/1 13/3/1
f 16/3/1 14/3/1 15/3/1
f 21/4/1 18/4/1 17/4/1
f 22/4/1 18/4/1 21/4/1
f 23/4/1 20/4/1 19/4/1
f 24/4/1 20/4/1 23/4/1
f 29/4/1 26/4/1 25/4/1
f 29/4/1 27/4/1 26/4/1
f 30/4/1 27/4/1 29/4/1
f 31/4/1 29/4/1 28/4/1
f 32/4/1 29/4/1 31/4/1
f 35/2/1 34/2/1 33/2/1
f 36/2/1 34/2/1 35/2/1
f 41/4/1 38/4/1 37/4/1
f 42/4/1 38/4/1 41/4/1
f 44/4/1 40/4/1 39/4/1
f 45/4/1 40/4/1 44/4/1
f 46/4/1 44/4/1 43/4/1
f 47/4/1 44/4/1 46/4/1
f 49/4/1 48/4/1 47/4/1
f 50/4/1 48/4/1 49/4/1
f 53/4/1 52/4/1 51/4/1
f 54/4/1 52/4/1 53/4/1
f 55/4/1 52/4/1 54/4/1
f 56/4/1 52/4/1 55/4/1
f 57/3/1 55/3/1 54/3/1
f 58/3/1 55/3/1 57/3/1
f 63/4/1 60/4/1 59/4/1
f 64/4/1 60/4/1 63/4/1
f 65/3/1 62/3/1 61/3/1
f 66/3/1 62/3/1 65/3/1
f 69/3/1 68/3/1 67/3/1
f 70/3/1 68/3/1 69/3/1
f 73/3/1 72/3/1 71/3/1
f 74/3/1 72/3/1 73/3/1
f 77/3/1 73/3/1 71/3/1
f 78/2/1 74/2/1 73/2/1
f 78/3/1 73/3/1 77/3/1
f 79/2/1 74/2/1 78/2/1
f 81/4/1 76/4/1 75/4/1
f 84/4/1 81/4/1 80/4/1
f 85/4/1 76/4/1 81/4/1
f 85/4/1 81/4/1 84/4/1
f 86/3/1 83/3/1 82/3/1
f 87/3/1 83/3/1 86/3/1
f 88/4/1 85/4/1 84/4/1
f 89/4/1 85/4/1 88/4/1
f 92/3/1 91/3/1 90/3/1
f 93/3/1 91/3/1 92/3/1
f 96/3/1 95/3/1 94/3/1
f 97/3/1 95/3/1 96/3/1
f 101/4/1 99/4/1 98/4/1
f 101/4/1 100/4/1 99/4/1
f 102/4/1 100/4/1 101/4/1
f 105/2/1 104/2/1 103/2/1
f 106/2/1 104/2/1 105/2/1
f 111/3/1 108/3/1 107/3/1
f 112/3/1 108/3/1 111/3/1
f 113/3/1 110/3/1 109/3/1
f 114/3/1 110/3/1 113/3/1
f 117/3/1 116/3/1 115/3/1
f 118/3/1 116/3/1 117/3/1
f 121/3/1 120/3/1 119/3/1
f 122/3/1 120/3/1 121/3/1
f 125/3/1 124/3/1 123/3/1
f 126/3/1 124/3/1 125/3/1
f 129/4/1 128/4/1 127/4/1
f 130/4/1 128/4/1 129/4/1
f 131/4/2 132/4/2 133/4/2
f 133/4/2 132/4/2 134/4/2
f 135/3/2 136/3/2 137/3/2
f 137/3/2 136/3/2 138/3/2
f 139/3/2 140/3/2 141/3/2
f 141/3/2 140/3/2 142/3/2
f 143/2/2 144/2/2 145/2/2
f 145/2/2 144/2/2 146/2/2
f 147/3/2 148/3/2 149/3/2
f 149/3/2 148/3/2 150/3/2
f 151/4/2 152/4/2 154/4/2
f 152/4/2 153/4/2 154/4/2
f 154/4/2 153/4/2 155/4/2
f 156/3/2 157/3/2 158/3/2
f 158/3/2 157/3/2 159/3/2
f 160/3/2 161/3/2 162/3/2
f 162/3/2 161/3/2 163/3/2
f 164/3/2 165/3/2 166/3/2
f 166/3/2 165/3/2 167/3/2
f 164/3/2 166/3/2 170/3/2
f 166/2/2 167/2/2 171/2/2
f 170/3/2 166/3/2 171/3/2
f 171/2/2 167/2/2 172/2/2
f 168/4/2 169/4/2 174/4/2
f 173/4/2 174/4/2 177/4/2
f 174/4/2 169/4/2 178/4/2
f 177/4/2 174/4/2 178/4/2
f 175/3/2 176/3/2 179/3/2
f 179/3/2 176/3/2 180/3/2
f 177/4/2 178/4/2 181/4/2
f 181/4/2 178/4/2 182/4/2
f 183/4/2 184/4/2 187/4/2
f 187/4/2 184/4/2 188/4/2
f 185/3/2 186/3/2 189/3/2
f 189/3/2 186/3/2 190/3/2
f 191/3/2 192/3/2 193/3/2
f 193/3/2 192/3/2 194/3/2
f 195/3/2 196/3/2 197/3/2
f 197/3/2 196/3/2 198/3/2
f 199/4/2 200/4/2 202/4/2
f 202/4/2 200/4/2 203/4/2
f 201/4/2 202/4/2 205/4/2
f 205/4/2 202/4/2 206/4/2
f 204/4/2 205/4/2 207/4/2
f 207/4/2 205/4/2 208/4/2
f 208/4/2 209/4/2 210/4/2
f 210/4/2 209/4/2 211/4/2
f 212/4/2 213/4/2 214/4/2
f 214/4/2 213/4/2 215/4/2
f 216/3/2 217/3/2 218/3/2
f 218/3/2 217/3/2 219/3/2
f 219/4/2 220/4/2 222/4/2
f 222/4/2 220/4/2 223/4/2
f 221/4/2 222/4/2 224/4/2
f 224/4/2 222/4/2 225/4/2
f 226/2/2 227/2/2 228/2/2
f 228/2/2 227/2/2 229/2/2
f 230/3/2 231/3/2 232/3/2
f 232/3/2 231/3/2 233/3/2
f 236/4/2 237/4/2 238/4/2
f 238/4/2 237/4/2 239/4/2
f 234/4/2 235/4/2 240/4/2
f 240/4/2 235/4/2 241/4/2
f 236/4/2 238/4/2 242/4/2
f 238/3/2 239/3/2 243/3/2
f 242/4/2 238/4/2 243/4/2
f 243/3/2 239/3/2 244/3/2
f 245/4/2 246/4/2 247/4/2
f 247/4/2 246/4/2 248/4/2
f 249/4/2 250/4/2 251/4/2
f 251/4/2 250/4/2 252/4/2
f 253/3/2 254/3/2 255/3/2
f 255/3/2 254/3/2 256/3/2
f 259/3/3 258/3/3 257/3/3
f 260/3/3 258/3/3 259/3/3
f 263/3/3 262/3/3 261/3/3
f 264/3/3 262/3/3 263/3/3
f 267/3/3 266/3/3 265/3/3
f 268/3/3 266/3/3 267/3/3
f 271/4/3 270/4/3 269/4/3
f 272/4/3 270/4/3 271/4/3
f 275/4/3 274/4/3 273/4/3
f 276/4/3 274/4/3 275/4/3
f 279/4/3 278/4/3 277/4/3
f 280/4/3 278/4/3 279/4/3
f 283/4/3 282/4/3 281/4/3
f 284/4/3 282/4/3 283/4/3
f 287/4/3 286/4/3 285/4/3
f 288/4/3 286/4/3 287/4/3
f 291/4/3 290/4/3 289/4/3
f 292/4/3 290/4/3 291/4/3
f 296/4/3 294/4/3 293/4/3
f 297/4/3 294/4/3 296/4/3
f 300/4/3 296/4/3 295/4/3
f 302/3/3 300/3/3 299/3/3
f 303/4/3 296/4/3 300/4/3
f 303/3/3 300/3/3 302/3/3
f 304/4/3 296/4/3 303/4/3
f 305/4/3 298/4/3 297/4/3
f 306/4/3 298/4/3 305/4/3
f 307/3/3 302/3/3 301/3/3
f 307/3/3 303/3/3 302/3/3
f 308/3/3 303/3/3 307/3/3
f 309/4/3 305/4/3 304/4/3
f 310/4/3 305/4/3 309/4/3
f 315/3/3 312/3/3 311/3/3
f 316/3/3 312/3/3 315/3/3
f 317/3/3 312/3/3 316/3/3
f 318/4/3 314/4/3 313/4/3
f 319/4/3 314/4/3 318/4/3
f 320/3/3 317/3/3 316/3/3
f 321/4/3 318/4/3 317/4/3
f 321/3/3 317/3/3 320/3/3
f 322/4/3 318/4/3 321/4/3
f 323/4/3 314/4/3 319/4/3
f 324/4/3 314/4/3 323/4/3
f 325/4/3 321/4/3 320/4/3
f 326/4/3 321/4/3 325/4/3
f 331/4/3 328/4/3 327/4/3
f 332/4/3 328/4/3 331/4/3
f 333/4/3 330/4/3 329/4/3
f 334/4/3 333/4/3 332/4/3
f 335/4/3 330/4/3 333/4/3
f 335/4/3 333/4/3 334/4/3
f 338/4/3 337/4/3 336/4/3
f 340/4/3 338/4/3 336/4/3
f 340/3/3 339/3/3 338/3/3
f 341/3/3 339/3/3 340/3/3
f 342/4/3 340/4/3 336/4/3
f 343/4/3 340/4/3 342/4/3
f 346/3/3 345/3/3 344/3/3
f 347/3/3 345/3/3 346/3/3
f 350/3/3 349/3/3 348/3/3
f 351/3/3 349/3/3 350/3/3
f 355/3/3 353/3/3 352/3/3
f 356/3/3 353/3/3 355/3/3
f 358/4/3 355/4/3 354/4/3
f 358/4/3 357/4/3 356/4/3
f 358/4/3 356/4/3 355/4/3
f 359/4/3 357/4/3 358/4/3
f 360/4/3 357/4/3 359/4/3
f 364/4/3 362/4/3 361/4/3
f 364/4/3 363/4/3 362/4/3
f 365/4/3 363/4/3 364/4/3
f 366/4/3 363/4/3 365/4/3
f 367/4/3 363/4/3 366/4/3
f 368/3/3 366/3/3 365/3/3
f 369/3/3 366/3/3 368/3/3
f 372/3/3 371/3/3 370/3/3
f 373/3/3 371/3/3 372/3/3
f 376/3/3 375/3/3 374/3/3
f 377/3/3 375/3/3 376/3/3
f 380/3/3 379/3/3 378/3/3
f 381/3/3 379/3/3 380/3/3
f 384/3/3 383/3/3 382/3/3
f 385/3/3 383/3/3 384/3/3
f 388/2/3 387/2/3 386/2/3
f 389/2/3 387/2/3 388/2/3
f 392/2/3 391/2/3 390/2/3
f 393/2/3 391/2/3 392/2/3
f 394/3/4 395/3/4 396/3/4
f 396/3/4 395/3/4 397/3/4
f 398/3/4 399/3/4 400/3/4
f 400/3/4 399/3/4 401/3/4
f 402/4/4 403/4/4 404/4/4
f 404/4/4 403/4/4 405/4/4
f 406/3/4 407/3/4 409/3/4
f 407/3/4 408/3/4 409/3/4
f 409/3/4 408/3/4 410/3/4
f 411/3/4 412/3/4 413/3/4
f 413/3/4 412/3/4 414/3/4
f 414/3/4 412/3/4 415/3/4
f 414/3/4 415/3/4 416/3/4
f 416/3/4 415/3/4 417/3/4
f 418/3/4 419/3/4 420/3/4
f 420/3/4 419/3/4 421/3/4
f 422/3/4 423/3/4 424/3/4
f 424/3/4 423/3/4 425/3/4
f 426/3/4 427/3/4 428/3/4
f 428/3/4 427/3/4 429/3/4
f 430/3/4 431/3/4 433/3/4
f 433/3/4 431/3/4 434/3/4
f 432/4/4 433/4/4 436/4/4
f 434/4/4 435/4/4 436/4/4
f 433/4/4 434/4/4 436/4/4
f 436/4/4 435/4/4 437/4/4
f 437/4/4 435/4/4 438/4/4
f 439/4/4 440/4/4 442/4/4
f 440/4/4 441/4/4 442/4/4
f 442/4/4 441/4/4 443/4/4
f 443/4/4 441/4/4 444/4/4
f 444/4/4 441/4/4 445/4/4
f 443/3/4 444/3/4 446/3/4
f 446/3/4 444/3/4 447/3/4
f 448/3/4 449/3/4 450/3/4
f 450/3/4 449/3/4 451/3/4
f 452/3/4 453/3/4 454/3/4
f 454/3/4 453/3/4 455/3/4
f 456/3/4 457/3/4 458/3/4
f 458/3/4 457/3/4 459/3/4
f 460/4/4 461/4/4 463/4/4
f 463/4/4 461/4/4 466/4/4
f 462/4/4 463/4/4 466/4/4
f 464/4/4 465/4/4 467/4/4
f 464/4/4 467/4/4 469/4/4
f 467/3/4 468/3/4 469/3/4
f 469/3/4 468/3/4 470/3/4
f 462/4/4 466/4/4 471/4/4
f 471/4/4 466/4/4 472/4/4
f 464/4/4 469/4/4 473/4/4
f 462/4/4 471/4/4 474/4/4
f 472/4/4 473/4/4 475/4/4
f 473/4/4 469/4/4 476/4/4
f 475/4/4 473/4/4 476/4/4
f 474/4/4 475/4/4 477/4/4
f 462/4/4 474/4/4 478/4/4
f 474/4/4 477/4/4 478/4/4
f 478/4/4 477/4/4 479/4/4
f 476/4/4 469/4/4 480/4/4
f 480/4/4 469/4/4 481/4/4
f 479/4/4 477/4/4 482/4/4
f 482/4/4 477/4/4 483/4/4
f 484/4/4 485/4/4 486/4/4
f 486/4/4 485/4/4 487/4/4
f 484/4/4 486/4/4 488/4/4
f 486/1/4 487/1/4 489/1/4
f 488/4/4 486/4/4 489/4/4
f 489/1/4 487/1/4 490/1/4
f 490/1/4 487/1/4 491/1/4
f 487/4/4 485/4/4 492/4/4
f 488/3/4 489/3/4 494/3/4
f 489/1/4 490/1/4 495/1/4
f 494/3/4 489/3/4 495/3/4
f 490/5/4 491/5/4 496/5/4
f 495/1/4 490/1/4 496/1/4
f 491/1/4 487/1/4 497/1/4
f 496/5/4 491/5/4 497/5/4
f 495/1/4 496/1/4 498/1/4
f 494/4/4 495/4/4 498/4/4
f 496/1/4 497/1/4 498/1/4
f 497/1/4 487/1/4 499/1/4
f 498/1/4 497/1/4 499/1/4
f 487/4/4 492/4/4 499/4/4
f 492/2/4 493/2/4 500/2/4
f 499/4/4 492/4/4 500/4/4
f 500/2/4 493/2/4 501/2/4
f 494/4/4 498/4/4 504/4/4
f 498/4/4 499/4/4 504/4/4
f 499/4/4 500/4/4 504/4/4
f 504/4/4 500/4/4 505/4/4
f 502/3/4 503/3/4 506/3/4
f 503/2/4 504/2/4 507/2/4
f 506/3/4 503/3/4 507/3/4
f 507/2/4 504/2/4 508/2/4
f 508/4/4 509/4/4 510/4/4
f 510/4/4 509/4/4 511/4/4
f 511/4/4 509/4/4 512/4/4
f 508/4/4 510/4/4 514/4/4
f 510/1/4 511/1/4 515/1/4
f 514/4/4 510/4/4 515/4/4
f 515/1/4 511/1/4 516/1/4
f 516/1/4 511/1/4 517/1/4
f 514/3/4 515/3/4 518/3/4
f 515/1/4 516/1/4 519/1/4
f 518/3/4 515/3/4 519/3/4
f 516/5/4 517/5/4 520/5/4
f 519/1/4 516/1/4 520/1/4
f 517/1/4 511/1/4 521/1/4
f 520/5/4 517/5/4 521/5/4
f 511/4/4 512/4/4 522/4/4
f 521/1/4 511/1/4 522/1/4
f 512/2/4 513/2/4 523/2/4
f 522/4/4 512/4/4 523/4/4
f 523/2/4 513/2/4 524/2/4
f 520/1/4 521/1/4 525/1/4
f 521/1/4 522/1/4 525/1/4
f 519/1/4 520/1/4 525/1/4
f 518/4/4 519/4/4 525/4/4
f 525/1/4 522/1/4 526/1/4
f 522/3/4 523/3/4 527/3/4
f 526/1/4 522/1/4 527/1/4
f 525/4/4 526/4/4 528/4/4
f 518/4/4 525/4/4 528/4/4
f 526/3/4 527/3/4 529/3/4
f 528/4/4 526/4/4 529/4/4
f 527/3/4 523/3/4 530/3/4
f 529/3/4 527/3/4 530/3/4
f 535/3/5 532/3/5 531/3/5
f 536/3/5 532/3/5 535/3/5
f 537/3/5 534/3/5 533/3/5
f 538/3/5 534/3/5 537/3/5
f 543/3/5 540/3/5 539/3/5
f 544/3/5 540/3/5 543/3/5
f 545/3/5 542/3/5 541/3/5
f 546/4/5 543/4/5 542/4/5
f 546/3/5 542/3/5 545/3/5
f 546/4/5 544/4/5 543/4/5
f 547/4/5 544/4/5 546/4/5
f 548/4/5 544/4/5 547/4/5
f 551/4/5 550/4/5 549/4/5
f 552/4/5 550/4/5 551/4/5
f 557/4/5 556/4/5 555/4/5
f 558/4/5 556/4/5 557/4/5
f 561/4/5 554/4/5 553/4/5
f 562/4/5 554/4/5 561/4/5
f 563/3/5 560/3/5 559/3/5
f 564/3/5 560/3/5 563/3/5
f 568/4/5 566/4/5 565/4/5
f 569/4/5 566/4/5 568/4/5
f 572/4/5 568/4/5 567/4/5
f 572/4/5 570/4/5 569/4/5
f 572/4/5 569/4/5 568/4/5
f 573/4/5 570/4/5 572/4/5
f 576/4/5 572/4/5 571/4/5
f 576/4/5 574/4/5 573/4/5
f 576/4/5 573/4/5 572/4/5
f 577/4/5 574/4/5 576/4/5
f 580/4/5 576/4/5 575/4/5
f 581/4/5 576/4/5 580/4/5
f 582/4/5 578/4/5 577/4/5
f 583/4/5 578/4/5 582/4/5
f 586/4/5 580/4/5 579/4/5
f 587/4/5 584/4/5 583/4/5
f 589/4/5 586/4/5 585/4/5
f 590/4/5 580/4/5 586/4/5
f 590/4/5 586/4/5 589/4/5
f 591/4/5 588/4/5 587/4/5
f 591/4/5 587/4/5 583/4/5
f 592/4/5 588/4/5 591/4/5
f 593/4/5 580/4/5 590/4/5
f 598/4/5 591/4/5 583/4/5
f 599/4/5 595/4/5 594/4/5
f 600/4/5 597/4/5 596/4/5
f 601/4/5 593/4/5 590/4/5
f 602/3/5 594/3/5 593/3/5
f 602/4/5 593/4/5 601/4/5
f 603/4/5 599/4/5 594/4/5
f 603/3/5 594/3/5 602/3/5
f 604/4/5 599/4/5 603/4/5
f 605/4/5 597/4/5 600/4/5
f 606/3/5 598/3/5 597/3/5
f 606/4/5 597/4/5 605/4/5
f 607/4/5 591/4/5 598/4/5
f 607/3/5 598/3/5 606/3/5
f 608/4/5 591/4/5 607/4/5
f 611/4/5 610/4/5 609/4/5
f 612/4/5 610/4/5 611/4/5
f 617/3/5 614/3/5 613/3/5
f 618/3/5 614/3/5 617/3/5
f 619/3/5 616/3/5 615/3/5
f 620/3/5 616/3/5 619/3/5
f 624/3/5 622/3/5 621/3/5
f 625/3/5 622/3/5 624/3/5
f 627/3/5 624/3/5 623/3/5
f 627/3/5 626/3/5 625/3/5
f 627/3/5 625/3/5 624/3/5
f 628/3/5 626/3/5 627/3/5
f 629/3/5 626/3/5 628/3/5
f 630/3/5 626/3/5 629/3/5
f 631/3/6 632/3/6 635/3/6
f 635/3/6 632/3/6 636/3/6
f 633/3/6 634/3/6 637/3/6
f 637/3/6 634/3/6 638/3/6
f 639/3/6 640/3/6 641/3/6
f 641/3/6 640/3/6 642/3/6
f 641/2/6 642/2/6 643/2/6
f 643/2/6 642/2/6 644/2/6
f 645/4/6 646/4/6 650/4/6
f 647/4/6 648/4/6 650/4/6
f 646/4/6 647/4/6 650/4/6
f 650/4/6 648/4/6 651/4/6
f 649/4/6 650/4/6 654/4/6
f 651/4/6 652/4/6 654/4/6
f 650/4/6 651/4/6 654/4/6
f 654/4/6 652/4/6 655/4/6
f 653/4/6 654/4/6 657/4/6
f 657/4/6 654/4/6 658/4/6
f 655/4/6 656/4/6 659/4/6
f 659/4/6 656/4/6 660/4/6
f 661/3/6 662/3/6 664/3/6
f 664/3/6 662/3/6 665/3/6
f 663/3/6 664/3/6 667/3/6
f 665/3/6 666/3/6 667/3/6
f 664/3/6 665/3/6 667/3/6
f 667/3/6 666/3/6 668/3/6
f 668/3/6 666/3/6 669/3/6
f 669/3/6 666/3/6 670/3/6
f 668/4/6 669/4/6 671/4/6
f 671/4/6 669/4/6 672/4/6
f 673/4/6 674/4/6 676/4/6
f 676/4/6 674/4/6 677/4/6
f 675/4/6 676/4/6 679/4/6
f 677/4/6 678/4/6 679/4/6
f 676/4/6 677/4/6 679/4/6
f 679/4/6 678/4/6 680/4/6
f 675/4/6 679/4/6 683/4/6
f 680/4/6 678/4/6 684/4/6
f 681/3/6 682/3/6 687/3/6
f 687/3/6 682/3/6 688/3/6
f 683/4/6 679/4/6 689/4/6
f 680/4/6 684/4/6 690/4/6
f 685/3/6 686/3/6 691/3/6
f 691/3/6 686/3/6 692/3/6
f 680/4/6 690/4/6 693/4/6
f 693/4/6 690/4/6 694/4/6
f 680/4/6 693/4/6 695/4/6
f 694/4/6 690/4/6 696/4/6
f 689/4/6 679/4/6 697/4/6
f 695/4/6 696/4/6 700/4/6
f 680/4/6 695/4/6 700/4/6
f 700/4/6 696/4/6 701/4/6
f 696/4/6 690/4/6 702/4/6
f 701/4/6 696/4/6 702/4/6
f 697/4/6 698/4/6 703/4/6
f 689/4/6 697/4/6 703/4/6
f 703/4/6 698/4/6 704/4/6
f 700/4/6 701/4/6 705/4/6
f 699/4/6 700/4/6 705/4/6
f 701/3/6 702/3/6 706/3/6
f 705/4/6 701/4/6 706/4/6
f 689/4/6 703/4/6 707/4/6
f 707/4/6 703/4/6 708/4/6
f 704/4/6 698/4/6 709/4/6
f 709/4/6 698/4/6 710/4/6
f 699/4/6 705/4/6 711/4/6
f 711/4/6 705/4/6 712/4/6
f 706/3/6 702/3/6 713/3/6
f 713/3/6 702/3/6 714/3/6
f 715/3/6 716/3/6 717/3/6
f 717/3/6 716/3/6 718/3/6
f 719/2/6 720/2/6 723/2/6
f 723/2/6 720/2/6 724/2/6
f 721/2/6 722/2/6 725/2/6
f 725/2/6 722/2/6 726/2/6
f 727/4/6 728/4/6 731/4/6
f 729/4/6 730/4/6 732/4/6
f 727/4/6 731/4/6 733/4/6
f 731/4/6 732/4/6 733/4/6
f 733/4/6 732/4/6 734/4/6
f 732/4/6 730/4/6 735/4/6
f 734/4/6 732/4/6 735/4/6
f 735/4/6 730/4/6 736/4/6
f 734/4/6 735/4/6 740/4/6
f 740/4/6 735/4/6 743/4/6
f 739/4/6 740/4/6 743/4/6
f 736/4/6 730/4/6 744/4/6
f 737/4/6 738/4/6 745/4/6
f 745/4/6 738/4/6 746/4/6
f 743/4/6 744/4/6 747/4/6
f 739/4/6 743/4/6 747/4/6
f 747/4/6 744/4/6 748/4/6
f 741/4/6 742/4/6 749/4/6
f 749/4/6 742/4/6 750/4/6
f 739/4/6 747/4/6 751/4/6
f 748/4/6 744/4/6 752/4/6
f 752/4/6 744/4/6 753/4/6
f 753/4/6 744/4/6 754/4/6
f 739/4/6 751/4/6 755/4/6
f 751/4/6 752/4/6 755/4/6
f 752/4/6 753/4/6 755/4/6
f 755/4/6 753/4/6 756/4/6
f 756/4/6 753/4/6 757/4/6
f 754/4/6 744/4/6 758/4/6
f 739/4/6 755/4/6 759/4/6
f 759/4/6 755/4/6 760/4/6
f 756/4/6 757/4/6 761/4/6
f 757/4/6 758/4/6 761/4/6
f 744/4/6 730/4/6 762/4/6
f 761/4/6 758/4/6 762/4/6
f 758/4/6 744/4/6 762/4/6
f 763/3/6 764/3/6 765/3/6
f 765/3/6 764/3/6 766/3/6
f 767/3/6 768/3/6 771/3/6
f 771/3/6 768/3/6 772/3/6
f 769/3/6 770/3/6 773/3/6
f 773/3/6 770/3/6 774/3/6
f 775/3/6 776/3/6 777/3/6
f 777/3/6 776/3/6 778/3/6
f 779/3/6 780/3/6 783/3/6
f 783/3/6 780/3/6 784/3/6
f 781/3/6 782/3/6 785/3/6
f 785/3/6 782/3/6 786/3/6
